<?xml version="1.0" encoding="UTF-8"?>
<svg width="404px" height="26px" viewBox="0 0 404 26" version="1.1" xmlns="http://www.w3.org/2000/svg" xmlns:xlink="http://www.w3.org/1999/xlink">
    <title>WEBSITE COMING SOON</title>
    <defs>
        <radialGradient cx="50%" cy="0%" fx="50%" fy="0%" r="892.311388%" gradientTransform="translate(0.500000,0.000000),scale(0.064356,1.000000),rotate(6.434569),translate(-0.500000,-0.000000)" id="radialGradient-1">
            <stop stop-color="#9C8E11" offset="0%"></stop>
            <stop stop-color="#584A17" offset="100%"></stop>
        </radialGradient>
    </defs>
    <g id="Page-1" stroke="none" stroke-width="1" fill="none" fill-rule="evenodd">
        <g id="Artboard" transform="translate(-173.000000, -770.000000)" fill="url(#radialGradient-1)" fill-rule="nonzero">
            <g id="WEBSITE-COMING-SOON" transform="translate(173.000000, 770.000000)">
                <path d="M24.9896907,25.5690608 L19.7476004,25.5690608 L15.9057945,6.78729282 L12.0280839,25.5690608 L6.82189833,25.5690608 L0,0.64640884 L5.02666193,0.64640884 L9.29932456,18.781768 L13.0334163,0.64640884 L18.7781728,0.64640884 L22.4763598,18.781768 L26.7849271,0.64640884 L31.7756843,0.64640884 L24.9896907,25.5690608 Z M51.882332,25.5690608 L33.4273018,25.5690608 L33.4273018,0.64640884 L51.6309989,0.64640884 L51.6309989,5.06353591 L38.1667259,5.06353591 L38.1667259,10.378453 L49.6562389,10.378453 L49.6562389,14.7955801 L38.1667259,14.7955801 L38.1667259,21.1519337 L51.882332,21.1519337 L51.882332,25.5690608 Z M74.5023107,18.2430939 C74.5023107,19.3683241 74.3227871,20.3798343 73.9637398,21.2776243 C73.6046925,22.1754144 73.0840739,22.9415285 72.4018841,23.5759669 C71.7196943,24.2104052 70.8938855,24.7011971 69.9244579,25.0483425 C68.9550302,25.395488 67.8719043,25.5690608 66.67508,25.5690608 L54.5392819,25.5690608 L54.5392819,0.64640884 L66.0287949,0.64640884 C68.5421258,0.64640884 70.4211399,1.24493554 71.6658372,2.44198895 C72.9105344,3.63904236 73.532883,5.29097606 73.532883,7.39779006 C73.532883,8.45119705 73.3174547,9.39088398 72.8865979,10.2168508 C72.4557412,11.0428177 71.8573291,11.7311234 71.0913615,12.281768 C72.1685034,12.8324125 73.0062804,13.604512 73.6046925,14.5980663 C74.2031046,15.5916206 74.5023107,16.8066298 74.5023107,18.2430939 Z M59.278706,4.9558011 L59.278706,10.4502762 L66.0287949,10.4502762 C66.8426354,10.4502762 67.5308093,10.198895 68.0933167,9.6961326 C68.6558241,9.19337017 68.9370779,8.52302026 68.9370779,7.68508287 C68.9370779,6.84714549 68.6797606,6.18278085 68.1651262,5.69198895 C67.6504918,5.20119705 66.9383813,4.9558011 66.0287949,4.9558011 L59.278706,4.9558011 Z M69.6551724,18.0635359 C69.6551724,17.0101289 69.338014,16.2021179 68.7036971,15.6395028 C68.0693803,15.0768877 67.1418415,14.7955801 65.9210807,14.7955801 L59.278706,14.7955801 L59.278706,21.2237569 L66.0287949,21.2237569 C66.4835881,21.2237569 66.9264131,21.1758748 67.3572698,21.0801105 C67.7881266,20.9843462 68.1770944,20.8107735 68.5241735,20.5593923 C68.8712525,20.308011 69.1465221,19.9848066 69.3499822,19.589779 C69.5534424,19.1947514 69.6551724,18.6860037 69.6551724,18.0635359 Z M86.4226804,0 C87.8588695,0 89.1334874,0.191528545 90.2465339,0.574585635 C91.3595805,0.957642726 92.2990876,1.46639042 93.0650551,2.10082873 C93.8310226,2.73526703 94.4473871,3.45948435 94.9141486,4.27348066 C95.3809101,5.08747698 95.6861002,5.9373849 95.8297192,6.82320442 L91.233914,7.97237569 C91.1621045,6.94290976 90.7073113,6.09300184 89.8695343,5.42265193 C89.0317573,4.75230203 87.882806,4.41712707 86.4226804,4.41712707 C85.8003318,4.41712707 85.1959355,4.47697974 84.6094916,4.59668508 C84.0230478,4.71639042 83.5024292,4.89594843 83.047636,5.13535912 C82.5928428,5.3747698 82.2337955,5.67403315 81.9704941,6.03314917 C81.7071928,6.39226519 81.5755421,6.81123389 81.5755421,7.29005525 C81.5755421,8.1519337 82.012383,8.79235727 82.8860647,9.21132597 C83.7597464,9.63029466 85.1540467,10.0313076 87.0689655,10.4143646 C88.5530276,10.7016575 89.8874867,11.0308471 91.0723427,11.4019337 C92.2571987,11.7730203 93.2685152,12.2458564 94.1062922,12.820442 C94.9440692,13.3950276 95.5903543,14.1132597 96.0451475,14.9751381 C96.4999408,15.8370166 96.7273374,16.9023941 96.7273374,18.1712707 C96.7273374,19.3683241 96.4879725,20.4516575 96.0092428,21.4212707 C95.5305131,22.390884 94.8423391,23.2168508 93.9447209,23.8991713 C93.0471027,24.5814917 91.9639768,25.1022099 90.6953431,25.461326 C89.4267093,25.820442 88.0024884,26 86.4226804,26 C85.2976656,26 84.1786349,25.8563536 83.0655883,25.5690608 C81.9525418,25.281768 80.929257,24.8448435 79.9957341,24.2582873 C79.0622112,23.6717311 78.266323,22.9235727 77.6080697,22.0138122 C76.9498163,21.1040516 76.5249437,20.0267035 76.3334518,18.781768 C77.2430383,18.5662983 78.1227041,18.3508287 78.9724493,18.1353591 C79.8221946,17.9198895 80.486432,17.752302 80.9651617,17.6325967 C81.0130347,18.3268877 81.2105107,18.9254144 81.5575898,19.4281768 C81.9046688,19.9309392 82.3355255,20.3439227 82.85016,20.6671271 C83.3647944,20.9903315 83.9332859,21.2357274 84.5556346,21.4033149 C85.1779832,21.5709024 85.8003318,21.6546961 86.4226804,21.6546961 C87.092902,21.6546961 87.7631236,21.5948435 88.4333452,21.4751381 C89.1035668,21.3554328 89.7019789,21.157919 90.2285816,20.8825967 C90.7551843,20.6072744 91.1800569,20.2601289 91.5031994,19.8411602 C91.826342,19.4221915 91.9879133,18.9134438 91.9879133,18.3149171 C91.9879133,17.93186 91.8981514,17.572744 91.7186278,17.2375691 C91.5391042,16.9023941 91.2219457,16.5971455 90.7671525,16.3218232 C90.3123593,16.0465009 89.707963,15.7891344 88.9539637,15.5497238 C88.1999645,15.3103131 87.2484892,15.0828729 86.0995379,14.8674033 C84.9505866,14.6519337 83.8195876,14.3825967 82.7065411,14.0593923 C81.5934945,13.7361878 80.6061145,13.2932781 79.744401,12.730663 C78.8826875,12.1680479 78.1825453,11.4498158 77.6439744,10.5759669 C77.1054035,9.70211786 76.836118,8.59484346 76.836118,7.25414365 C76.836118,6.17679558 77.0635146,5.19521179 77.5183079,4.30939227 C77.9731011,3.42357274 78.6193862,2.66344383 79.4571632,2.02900552 C80.2949402,1.39456722 81.3002725,0.897790055 82.4731603,0.538674033 C83.6460481,0.179558011 84.9625548,0 86.4226804,0 Z M104.554568,25.5690608 L99.815144,25.5690608 L99.815144,0.64640884 L104.554568,0.64640884 L104.554568,25.5690608 Z M118.198365,5.06353591 L118.198365,25.5690608 L113.458941,25.5690608 L113.458941,5.06353591 L106.780661,5.06353591 L106.780661,0.64640884 L124.876644,0.64640884 L124.876644,5.06353591 L118.198365,5.06353591 Z M145.485958,25.5690608 L127.030928,25.5690608 L127.030928,0.64640884 L145.234625,0.64640884 L145.234625,5.06353591 L131.770352,5.06353591 L131.770352,10.378453 L143.259865,10.378453 L143.259865,14.7955801 L131.770352,14.7955801 L131.770352,21.1519337 L145.485958,21.1519337 L145.485958,25.5690608 Z M180.88802,19.140884 C179.954497,21.271639 178.560197,22.9475138 176.705119,24.1685083 C174.850041,25.3895028 172.665837,26 170.152506,26 C168.453016,26 166.867224,25.664825 165.39513,24.9944751 C163.923036,24.3241252 162.648418,23.4023941 161.571276,22.2292818 C160.494134,21.0561694 159.644389,19.679558 159.022041,18.0994475 C158.399692,16.519337 158.088518,14.8195212 158.088518,13 C158.088518,11.1804788 158.399692,9.48066298 159.022041,7.90055249 C159.644389,6.32044199 160.494134,4.94383057 161.571276,3.77071823 C162.648418,2.59760589 163.923036,1.67587477 165.39513,1.00552486 C166.867224,0.335174954 168.453016,0 170.152506,0 C172.689774,0 174.897914,0.604511971 176.776929,1.81353591 C178.655943,3.02255985 180.050243,4.70441989 180.959829,6.85911602 L176.220405,8.0441989 C175.64593,6.96685083 174.838073,6.08103131 173.796836,5.38674033 C172.755599,4.69244936 171.540822,4.34530387 170.152506,4.34530387 C169.123237,4.34530387 168.165778,4.57274401 167.280128,5.02762431 C166.394478,5.4825046 165.622526,6.10497238 164.964273,6.89502762 C164.30602,7.68508287 163.785401,8.606814 163.402417,9.66022099 C163.019434,10.713628 162.827942,11.8268877 162.827942,13 C162.827942,14.1970534 163.019434,15.3222836 163.402417,16.3756906 C163.785401,17.4290976 164.30602,18.3508287 164.964273,19.140884 C165.622526,19.9309392 166.394478,20.553407 167.280128,21.0082873 C168.165778,21.4631676 169.123237,21.6906077 170.152506,21.6906077 C171.516886,21.6906077 172.719694,21.3434622 173.760931,20.6491713 C174.802169,19.9548803 175.610025,19.0690608 176.184501,17.9917127 L180.88802,19.140884 Z M194.998578,0.0359116022 C196.745941,0.0359116022 198.367638,0.371086556 199.863669,1.04143646 C201.359699,1.71178637 202.646285,2.6335175 203.723427,3.80662983 C204.800569,4.97974217 205.64433,6.35635359 206.25471,7.93646409 C206.865091,9.51657459 207.170281,11.2044199 207.170281,13 C207.170281,14.8195212 206.865091,16.519337 206.25471,18.0994475 C205.64433,19.679558 204.800569,21.0561694 203.723427,22.2292818 C202.646285,23.4023941 201.359699,24.3241252 199.863669,24.9944751 C198.367638,25.664825 196.745941,26 194.998578,26 C193.227278,26 191.593613,25.664825 190.097583,24.9944751 C188.601552,24.3241252 187.314966,23.4023941 186.237824,22.2292818 C185.160683,21.0561694 184.316921,19.679558 183.706541,18.0994475 C183.096161,16.519337 182.79097,14.8195212 182.79097,13 C182.79097,11.2044199 183.096161,9.51657459 183.706541,7.93646409 C184.316921,6.35635359 185.160683,4.97974217 186.237824,3.80662983 C187.314966,2.6335175 188.601552,1.71178637 190.097583,1.04143646 C191.593613,0.371086556 193.227278,0.0359116022 194.998578,0.0359116022 Z M194.998578,21.5110497 C196.027847,21.5110497 196.99129,21.2895948 197.888909,20.8466851 C198.786527,20.4037753 199.570447,19.7932781 200.240668,19.0151934 C200.91089,18.2371087 201.437493,17.3333333 201.820476,16.3038674 C202.20346,15.2744015 202.394952,14.1731123 202.394952,13 C202.394952,11.8508287 202.20346,10.7615101 201.820476,9.7320442 C201.437493,8.70257827 200.91089,7.79880295 200.240668,7.02071823 C199.570447,6.24263352 198.786527,5.63213628 197.888909,5.18922652 C196.99129,4.74631676 196.027847,4.52486188 194.998578,4.52486188 C193.969309,4.52486188 192.999882,4.74631676 192.090295,5.18922652 C191.180709,5.63213628 190.390805,6.24263352 189.720583,7.02071823 C189.050361,7.79880295 188.523759,8.70257827 188.140775,9.7320442 C187.757791,10.7615101 187.566299,11.8508287 187.566299,13 C187.566299,14.1731123 187.757791,15.2744015 188.140775,16.3038674 C188.523759,17.3333333 189.050361,18.2371087 189.720583,19.0151934 C190.390805,19.7932781 191.180709,20.4037753 192.090295,20.8466851 C192.999882,21.2895948 193.969309,21.5110497 194.998578,21.5110497 Z M234.457874,25.5690608 L229.79026,25.5690608 L229.79026,7.29005525 L224.727693,25.5690608 L219.665126,25.5690608 L214.60256,7.29005525 L214.60256,25.5690608 L209.934945,25.5690608 L209.934945,0.64640884 L216.972272,0.64640884 L222.178457,19.320442 L227.384643,0.64640884 L234.457874,0.64640884 L234.457874,25.5690608 Z M243.182723,25.5690608 L238.443299,25.5690608 L238.443299,0.64640884 L243.182723,0.64640884 L243.182723,25.5690608 Z M267.741557,25.5690608 L262.032705,25.5690608 L251.871667,7.82872928 L251.871667,25.5690608 L247.132243,25.5690608 L247.132243,0.64640884 L252.841095,0.64640884 L262.966228,18.3867403 L262.966228,0.64640884 L267.741557,0.64640884 L267.741557,25.5690608 Z M294.382865,25.5690608 L290.002488,25.5690608 L290.002488,22.8756906 C289.164711,23.8812155 288.111506,24.6533149 286.842872,25.191989 C285.574239,25.730663 284.161986,26 282.606114,26 C280.906624,26 279.320832,25.664825 277.848738,24.9944751 C276.376644,24.3241252 275.096042,23.4083794 274.006932,22.2472376 C272.917822,21.0860958 272.062093,19.7154696 271.439744,18.1353591 C270.817395,16.5552486 270.506221,14.8554328 270.506221,13.0359116 C270.506221,11.2163904 270.817395,9.51657459 271.439744,7.93646409 C272.062093,6.35635359 272.917822,4.97974217 274.006932,3.80662983 C275.096042,2.6335175 276.376644,1.71178637 277.848738,1.04143646 C279.320832,0.371086556 280.906624,0.0359116022 282.606114,0.0359116022 C285.095509,0.0359116022 287.279713,0.634438306 289.158727,1.83149171 C291.037741,3.02854512 292.44401,4.70441989 293.377533,6.85911602 L288.674014,8.0441989 C288.147411,7.01473297 287.345539,6.14088398 286.268397,5.42265193 C285.191255,4.70441989 283.970494,4.34530387 282.606114,4.34530387 C281.576846,4.34530387 280.613402,4.57872928 279.715784,5.04558011 C278.818166,5.51243094 278.04023,6.14088398 277.381977,6.93093923 C276.723723,7.72099448 276.203105,8.6427256 275.820121,9.6961326 C275.437137,10.7495396 275.245645,11.8627993 275.245645,13.0359116 C275.245645,14.2090239 275.443121,15.3222836 275.838073,16.3756906 C276.233025,17.4290976 276.771596,18.3508287 277.453786,19.140884 C278.135976,19.9309392 278.937848,20.553407 279.859403,21.0082873 C280.780957,21.4631676 281.768337,21.6906077 282.821543,21.6906077 C283.707193,21.6906077 284.538986,21.5469613 285.316921,21.2596685 C286.094857,20.9723757 286.794999,20.5773481 287.417348,20.0745856 C288.039697,19.5718232 288.578268,18.985267 289.033061,18.3149171 C289.487854,17.6445672 289.822965,16.9143646 290.038393,16.1243094 L283.288304,16.1243094 L283.288304,11.7071823 L294.382865,11.7071823 L294.382865,25.5690608 Z M318.044081,0 C319.48027,0 320.754888,0.191528545 321.867935,0.574585635 C322.980981,0.957642726 323.920488,1.46639042 324.686456,2.10082873 C325.452423,2.73526703 326.068788,3.45948435 326.535549,4.27348066 C327.002311,5.08747698 327.307501,5.9373849 327.45112,6.82320442 L322.855315,7.97237569 C322.783505,6.94290976 322.328712,6.09300184 321.490935,5.42265193 C320.653158,4.75230203 319.504207,4.41712707 318.044081,4.41712707 C317.421732,4.41712707 316.817336,4.47697974 316.230892,4.59668508 C315.644448,4.71639042 315.12383,4.89594843 314.669037,5.13535912 C314.214243,5.3747698 313.855196,5.67403315 313.591895,6.03314917 C313.328593,6.39226519 313.196943,6.81123389 313.196943,7.29005525 C313.196943,8.1519337 313.633784,8.79235727 314.507465,9.21132597 C315.381147,9.63029466 316.775447,10.0313076 318.690366,10.4143646 C320.174428,10.7016575 321.508887,11.0308471 322.693743,11.4019337 C323.878599,11.7730203 324.889916,12.2458564 325.727693,12.820442 C326.56547,13.3950276 327.211755,14.1132597 327.666548,14.9751381 C328.121341,15.8370166 328.348738,16.9023941 328.348738,18.1712707 C328.348738,19.3683241 328.109373,20.4516575 327.630643,21.4212707 C327.151914,22.390884 326.46374,23.2168508 325.566122,23.8991713 C324.668503,24.5814917 323.585377,25.1022099 322.316744,25.461326 C321.04811,25.820442 319.623889,26 318.044081,26 C316.919066,26 315.800036,25.8563536 314.686989,25.5690608 C313.573942,25.281768 312.550658,24.8448435 311.617135,24.2582873 C310.683612,23.6717311 309.887724,22.9235727 309.22947,22.0138122 C308.571217,21.1040516 308.146344,20.0267035 307.954852,18.781768 C308.864439,18.5662983 309.744105,18.3508287 310.59385,18.1353591 C311.443595,17.9198895 312.107833,17.752302 312.586562,17.6325967 C312.634435,18.3268877 312.831911,18.9254144 313.17899,19.4281768 C313.526069,19.9309392 313.956926,20.3439227 314.471561,20.6671271 C314.986195,20.9903315 315.554687,21.2357274 316.177035,21.4033149 C316.799384,21.5709024 317.421732,21.6546961 318.044081,21.6546961 C318.714303,21.6546961 319.384524,21.5948435 320.054746,21.4751381 C320.724967,21.3554328 321.32338,21.157919 321.849982,20.8825967 C322.376585,20.6072744 322.801458,20.2601289 323.1246,19.8411602 C323.447743,19.4221915 323.609314,18.9134438 323.609314,18.3149171 C323.609314,17.93186 323.519552,17.572744 323.340028,17.2375691 C323.160505,16.9023941 322.843346,16.5971455 322.388553,16.3218232 C321.93376,16.0465009 321.329364,15.7891344 320.575364,15.5497238 C319.821365,15.3103131 318.86989,15.0828729 317.720938,14.8674033 C316.571987,14.6519337 315.440988,14.3825967 314.327942,14.0593923 C313.214895,13.7361878 312.227515,13.2932781 311.365802,12.730663 C310.504088,12.1680479 309.803946,11.4498158 309.265375,10.5759669 C308.726804,9.70211786 308.457519,8.59484346 308.457519,7.25414365 C308.457519,6.17679558 308.684915,5.19521179 309.139708,4.30939227 C309.594502,3.42357274 310.240787,2.66344383 311.078564,2.02900552 C311.916341,1.39456722 312.921673,0.897790055 314.094561,0.538674033 C315.267449,0.179558011 316.583955,0 318.044081,0 Z M342.423391,0.0359116022 C344.170755,0.0359116022 345.792452,0.371086556 347.288482,1.04143646 C348.784512,1.71178637 350.071098,2.6335175 351.14824,3.80662983 C352.225382,4.97974217 353.069143,6.35635359 353.679524,7.93646409 C354.289904,9.51657459 354.595094,11.2044199 354.595094,13 C354.595094,14.8195212 354.289904,16.519337 353.679524,18.0994475 C353.069143,19.679558 352.225382,21.0561694 351.14824,22.2292818 C350.071098,23.4023941 348.784512,24.3241252 347.288482,24.9944751 C345.792452,25.664825 344.170755,26 342.423391,26 C340.652091,26 339.018426,25.664825 337.522396,24.9944751 C336.026366,24.3241252 334.73978,23.4023941 333.662638,22.2292818 C332.585496,21.0561694 331.741735,19.679558 331.131354,18.0994475 C330.520974,16.519337 330.215784,14.8195212 330.215784,13 C330.215784,11.2044199 330.520974,9.51657459 331.131354,7.93646409 C331.741735,6.35635359 332.585496,4.97974217 333.662638,3.80662983 C334.73978,2.6335175 336.026366,1.71178637 337.522396,1.04143646 C339.018426,0.371086556 340.652091,0.0359116022 342.423391,0.0359116022 Z M342.423391,21.5110497 C343.45266,21.5110497 344.416104,21.2895948 345.313722,20.8466851 C346.21134,20.4037753 346.99526,19.7932781 347.665482,19.0151934 C348.335703,18.2371087 348.862306,17.3333333 349.24529,16.3038674 C349.628273,15.2744015 349.819765,14.1731123 349.819765,13 C349.819765,11.8508287 349.628273,10.7615101 349.24529,9.7320442 C348.862306,8.70257827 348.335703,7.79880295 347.665482,7.02071823 C346.99526,6.24263352 346.21134,5.63213628 345.313722,5.18922652 C344.416104,4.74631676 343.45266,4.52486188 342.423391,4.52486188 C341.394123,4.52486188 340.424695,4.74631676 339.515108,5.18922652 C338.605522,5.63213628 337.815618,6.24263352 337.145396,7.02071823 C336.475175,7.79880295 335.948572,8.70257827 335.565588,9.7320442 C335.182605,10.7615101 334.991113,11.8508287 334.991113,13 C334.991113,14.1731123 335.182605,15.2744015 335.565588,16.3038674 C335.948572,17.3333333 336.475175,18.2371087 337.145396,19.0151934 C337.815618,19.7932781 338.605522,20.4037753 339.515108,20.8466851 C340.424695,21.2895948 341.394123,21.5110497 342.423391,21.5110497 Z M368.454319,0.0359116022 C370.201683,0.0359116022 371.82338,0.371086556 373.31941,1.04143646 C374.81544,1.71178637 376.102026,2.6335175 377.179168,3.80662983 C378.25631,4.97974217 379.100071,6.35635359 379.710451,7.93646409 C380.320832,9.51657459 380.626022,11.2044199 380.626022,13 C380.626022,14.8195212 380.320832,16.519337 379.710451,18.0994475 C379.100071,19.679558 378.25631,21.0561694 377.179168,22.2292818 C376.102026,23.4023941 374.81544,24.3241252 373.31941,24.9944751 C371.82338,25.664825 370.201683,26 368.454319,26 C366.683019,26 365.049354,25.664825 363.553324,24.9944751 C362.057294,24.3241252 360.770707,23.4023941 359.693566,22.2292818 C358.616424,21.0561694 357.772663,19.679558 357.162282,18.0994475 C356.551902,16.519337 356.246712,14.8195212 356.246712,13 C356.246712,11.2044199 356.551902,9.51657459 357.162282,7.93646409 C357.772663,6.35635359 358.616424,4.97974217 359.693566,3.80662983 C360.770707,2.6335175 362.057294,1.71178637 363.553324,1.04143646 C365.049354,0.371086556 366.683019,0.0359116022 368.454319,0.0359116022 Z M368.454319,21.5110497 C369.483588,21.5110497 370.447032,21.2895948 371.34465,20.8466851 C372.242268,20.4037753 373.026188,19.7932781 373.69641,19.0151934 C374.366631,18.2371087 374.893234,17.3333333 375.276218,16.3038674 C375.659201,15.2744015 375.850693,14.1731123 375.850693,13 C375.850693,11.8508287 375.659201,10.7615101 375.276218,9.7320442 C374.893234,8.70257827 374.366631,7.79880295 373.69641,7.02071823 C373.026188,6.24263352 372.242268,5.63213628 371.34465,5.18922652 C370.447032,4.74631676 369.483588,4.52486188 368.454319,4.52486188 C367.42505,4.52486188 366.455623,4.74631676 365.546036,5.18922652 C364.63645,5.63213628 363.846546,6.24263352 363.176324,7.02071823 C362.506103,7.79880295 361.9795,8.70257827 361.596516,9.7320442 C361.213532,10.7615101 361.022041,11.8508287 361.022041,13 C361.022041,14.1731123 361.213532,15.2744015 361.596516,16.3038674 C361.9795,17.3333333 362.506103,18.2371087 363.176324,19.0151934 C363.846546,19.7932781 364.63645,20.4037753 365.546036,20.8466851 C366.455623,21.2895948 367.42505,21.5110497 368.454319,21.5110497 Z M404,25.5690608 L398.291148,25.5690608 L388.13011,7.82872928 L388.13011,25.5690608 L383.390686,25.5690608 L383.390686,0.64640884 L389.099538,0.64640884 L399.224671,18.3867403 L399.224671,0.64640884 L404,0.64640884 L404,25.5690608 Z" id="Combined-Shape"></path>
            </g>
        </g>
    </g>
</svg>