<?xml version="1.0" encoding="UTF-8"?>
<svg width="244px" height="70px" viewBox="0 0 244 70" version="1.1" xmlns="http://www.w3.org/2000/svg" xmlns:xlink="http://www.w3.org/1999/xlink">
    <title>Contact: TONY DAVIES</title>
    <defs>
        <radialGradient cx="45.4515631%" cy="50%" fx="45.4515631%" fy="50%" r="213.020038%" gradientTransform="translate(0.454516,0.500000),scale(0.285790,1.000000),rotate(10.488221),translate(-0.454516,-0.500000)" id="radialGradient-1">
            <stop stop-color="#FFF691" offset="0%"></stop>
            <stop stop-color="#AB902C" offset="100%"></stop>
        </radialGradient>
        <path d="M15.24,13.56 C14.616,14.984 13.684,16.104 12.444,16.92 C11.204,17.736 9.744,18.144 8.064,18.144 C6.928,18.144 5.868,17.92 4.884,17.472 C3.9,17.024 3.048,16.408 2.328,15.624 C1.608,14.84 1.04,13.92 0.624,12.864 C0.208,11.808 -1.13686838e-13,10.672 -1.13686838e-13,9.456 C-1.13686838e-13,8.24 0.208,7.104 0.624,6.048 C1.04,4.992 1.608,4.072 2.328,3.288 C3.048,2.504 3.9,1.888 4.884,1.44 C5.868,0.992 6.928,0.768 8.064,0.768 C9.76,0.768 11.236,1.172 12.492,1.98 C13.748,2.788 14.68,3.912 15.288,5.352 L12.12,6.144 C11.736,5.424 11.196,4.832 10.5,4.368 C9.804,3.904 8.992,3.672 8.064,3.672 C7.376,3.672 6.736,3.824 6.144,4.128 C5.552,4.432 5.036,4.848 4.596,5.376 C4.156,5.904 3.808,6.52 3.552,7.224 C3.296,7.928 3.168,8.672 3.168,9.456 C3.168,10.256 3.296,11.008 3.552,11.712 C3.808,12.416 4.156,13.032 4.596,13.56 C5.036,14.088 5.552,14.504 6.144,14.808 C6.736,15.112 7.376,15.264 8.064,15.264 C8.976,15.264 9.78,15.032 10.476,14.568 C11.172,14.104 11.712,13.512 12.096,12.792 L15.24,13.56 Z M22.656,5.184 C23.52,5.184 24.328,5.348 25.08,5.676 C25.832,6.004 26.492,6.46 27.06,7.044 C27.628,7.628 28.076,8.316 28.404,9.108 C28.732,9.9 28.896,10.76 28.896,11.688 C28.896,12.616 28.732,13.472 28.404,14.256 C28.076,15.04 27.628,15.72 27.06,16.296 C26.492,16.872 25.832,17.324 25.08,17.652 C24.328,17.98 23.52,18.144 22.656,18.144 C21.792,18.144 20.984,17.98 20.232,17.652 C19.48,17.324 18.824,16.872 18.264,16.296 C17.704,15.72 17.26,15.04 16.932,14.256 C16.604,13.472 16.44,12.616 16.44,11.688 C16.44,10.76 16.604,9.9 16.932,9.108 C17.26,8.316 17.704,7.628 18.264,7.044 C18.824,6.46 19.48,6.004 20.232,5.676 C20.984,5.348 21.792,5.184 22.656,5.184 Z M22.656,15.24 C23.072,15.24 23.464,15.156 23.832,14.988 C24.2,14.82 24.524,14.58 24.804,14.268 C25.084,13.956 25.304,13.584 25.464,13.152 C25.624,12.72 25.704,12.24 25.704,11.712 C25.704,11.184 25.624,10.696 25.464,10.248 C25.304,9.8 25.084,9.416 24.804,9.096 C24.524,8.776 24.2,8.528 23.832,8.352 C23.464,8.176 23.072,8.088 22.656,8.088 C22.24,8.088 21.844,8.176 21.468,8.352 C21.092,8.528 20.768,8.776 20.496,9.096 C20.224,9.416 20.008,9.8 19.848,10.248 C19.688,10.696 19.608,11.184 19.608,11.712 C19.608,12.24 19.688,12.72 19.848,13.152 C20.008,13.584 20.224,13.956 20.496,14.268 C20.768,14.58 21.092,14.82 21.468,14.988 C21.844,15.156 22.24,15.24 22.656,15.24 Z M41.616,17.856 L38.448,17.856 L38.448,10.632 C38.448,10.456 38.424,10.228 38.376,9.948 C38.328,9.668 38.228,9.396 38.076,9.132 C37.924,8.868 37.696,8.644 37.392,8.46 C37.088,8.276 36.672,8.184 36.144,8.184 C35.424,8.184 34.844,8.416 34.404,8.88 C33.964,9.344 33.744,9.928 33.744,10.632 L33.744,17.856 L30.576,17.856 L30.576,5.496 L33.6,5.496 L33.6,6.696 C34,6.232 34.464,5.864 34.992,5.592 C35.52,5.32 36.12,5.184 36.792,5.184 C37.512,5.184 38.172,5.316 38.772,5.58 C39.372,5.844 39.88,6.212 40.296,6.684 C40.712,7.156 41.036,7.728 41.268,8.4 C41.5,9.072 41.616,9.816 41.616,10.632 L41.616,17.856 Z M49.728,17.832 C48.816,17.928 48.016,17.872 47.328,17.664 C46.64,17.456 46.064,17.12 45.6,16.656 C45.136,16.192 44.784,15.62 44.544,14.94 C44.304,14.26 44.184,13.496 44.184,12.648 L44.184,8.304 L42.696,8.304 L42.696,5.496 L44.184,5.496 L44.184,0 L47.352,0 L47.352,5.496 L49.584,5.496 L49.584,8.304 L47.352,8.304 L47.352,12.672 C47.352,13.536 47.548,14.144 47.94,14.496 C48.332,14.848 48.928,15 49.728,14.952 L49.728,17.832 Z M59.472,17.856 C59.344,17.568 59.24,17.184 59.16,16.704 C58.744,17.136 58.224,17.476 57.6,17.724 C56.976,17.972 56.232,18.096 55.368,18.096 C54.712,18.096 54.084,18.012 53.484,17.844 C52.884,17.676 52.352,17.428 51.888,17.1 C51.424,16.772 51.052,16.356 50.772,15.852 C50.492,15.348 50.352,14.76 50.352,14.088 C50.352,13.4 50.488,12.828 50.76,12.372 C51.032,11.916 51.4,11.548 51.864,11.268 C52.328,10.988 52.864,10.78 53.472,10.644 C54.08,10.508 54.728,10.408 55.416,10.344 C55.928,10.296 56.4,10.24 56.832,10.176 C57.264,10.112 57.636,10.028 57.948,9.924 C58.26,9.82 58.504,9.688 58.68,9.528 C58.856,9.368 58.944,9.16 58.944,8.904 C58.944,8.584 58.748,8.308 58.356,8.076 C57.964,7.844 57.408,7.728 56.688,7.728 C56.416,7.728 56.136,7.76 55.848,7.824 C55.56,7.888 55.292,7.98 55.044,8.1 C54.796,8.22 54.58,8.372 54.396,8.556 C54.212,8.74 54.08,8.96 54,9.216 C53.84,9.184 53.628,9.136 53.364,9.072 C53.1,9.008 52.824,8.94 52.536,8.868 C52.248,8.796 51.968,8.724 51.696,8.652 C51.424,8.58 51.192,8.52 51,8.472 C51.16,7.992 51.412,7.552 51.756,7.152 C52.1,6.752 52.512,6.404 52.992,6.108 C53.472,5.812 54.016,5.584 54.624,5.424 C55.232,5.264 55.896,5.184 56.616,5.184 C57.448,5.184 58.16,5.264 58.752,5.424 C59.344,5.584 59.84,5.796 60.24,6.06 C60.64,6.324 60.96,6.616 61.2,6.936 C61.44,7.256 61.62,7.572 61.74,7.884 C61.86,8.196 61.936,8.488 61.968,8.76 C62,9.032 62.016,9.248 62.016,9.408 L62.016,15.84 C62.016,16.144 62.056,16.496 62.136,16.896 C62.216,17.296 62.296,17.616 62.376,17.856 L59.472,17.856 Z M59.064,11.904 C58.728,12.128 58.308,12.296 57.804,12.408 C57.3,12.52 56.72,12.616 56.064,12.696 C55.28,12.776 54.664,12.916 54.216,13.116 C53.768,13.316 53.544,13.648 53.544,14.112 C53.544,14.464 53.732,14.748 54.108,14.964 C54.484,15.18 54.992,15.288 55.632,15.288 C56.112,15.288 56.56,15.248 56.976,15.168 C57.392,15.088 57.756,14.956 58.068,14.772 C58.38,14.588 58.624,14.356 58.8,14.076 C58.976,13.796 59.064,13.456 59.064,13.056 L59.064,11.904 Z M75.936,14.448 C75.472,15.632 74.74,16.544 73.74,17.184 C72.74,17.824 71.56,18.144 70.2,18.144 C69.272,18.144 68.416,17.976 67.632,17.64 C66.848,17.304 66.176,16.844 65.616,16.26 C65.056,15.676 64.616,14.992 64.296,14.208 C63.976,13.424 63.816,12.584 63.816,11.688 C63.816,10.792 63.976,9.948 64.296,9.156 C64.616,8.364 65.056,7.676 65.616,7.092 C66.176,6.508 66.848,6.044 67.632,5.7 C68.416,5.356 69.272,5.184 70.2,5.184 C71.56,5.184 72.744,5.516 73.752,6.18 C74.76,6.844 75.488,7.776 75.936,8.976 C75.728,9.024 75.484,9.076 75.204,9.132 C74.924,9.188 74.64,9.244 74.352,9.3 C74.064,9.356 73.78,9.412 73.5,9.468 C73.22,9.524 72.968,9.576 72.744,9.624 C72.52,9.208 72.18,8.848 71.724,8.544 C71.268,8.24 70.76,8.088 70.2,8.088 C69.768,8.088 69.36,8.184 68.976,8.376 C68.592,8.568 68.256,8.828 67.968,9.156 C67.68,9.484 67.452,9.868 67.284,10.308 C67.116,10.748 67.032,11.216 67.032,11.712 C67.032,12.192 67.116,12.648 67.284,13.08 C67.452,13.512 67.68,13.892 67.968,14.22 C68.256,14.548 68.592,14.804 68.976,14.988 C69.36,15.172 69.768,15.264 70.2,15.264 C70.76,15.264 71.268,15.12 71.724,14.832 C72.18,14.544 72.52,14.192 72.744,13.776 L75.936,14.448 Z M83.544,17.832 C82.632,17.928 81.832,17.872 81.144,17.664 C80.456,17.456 79.88,17.12 79.416,16.656 C78.952,16.192 78.6,15.62 78.36,14.94 C78.12,14.26 78,13.496 78,12.648 L78,8.304 L76.512,8.304 L76.512,5.496 L78,5.496 L78,0 L81.168,0 L81.168,5.496 L83.4,5.496 L83.4,8.304 L81.168,8.304 L81.168,12.672 C81.168,13.536 81.364,14.144 81.756,14.496 C82.148,14.848 82.744,15 83.544,14.952 L83.544,17.832 Z M86.352,17.952 C85.872,17.952 85.46,17.78 85.116,17.436 C84.772,17.092 84.6,16.68 84.6,16.2 C84.6,15.704 84.772,15.28 85.116,14.928 C85.46,14.576 85.872,14.4 86.352,14.4 C86.848,14.4 87.272,14.576 87.624,14.928 C87.976,15.28 88.152,15.704 88.152,16.2 C88.152,16.68 87.976,17.092 87.624,17.436 C87.272,17.78 86.848,17.952 86.352,17.952 Z M86.352,9.432 C85.872,9.432 85.46,9.26 85.116,8.916 C84.772,8.572 84.6,8.16 84.6,7.68 C84.6,7.184 84.772,6.76 85.116,6.408 C85.46,6.056 85.872,5.88 86.352,5.88 C86.848,5.88 87.272,6.056 87.624,6.408 C87.976,6.76 88.152,7.184 88.152,7.68 C88.152,8.16 87.976,8.572 87.624,8.916 C87.272,9.26 86.848,9.432 86.352,9.432 Z M104.232,4.152 L104.232,17.856 L101.064,17.856 L101.064,4.152 L96.6,4.152 L96.6,1.2 L108.696,1.2 L108.696,4.152 L104.232,4.152 Z M117.552,0.792 C118.72,0.792 119.804,1.016 120.804,1.464 C121.804,1.912 122.664,2.528 123.384,3.312 C124.104,4.096 124.668,5.016 125.076,6.072 C125.484,7.128 125.688,8.256 125.688,9.456 C125.688,10.672 125.484,11.808 125.076,12.864 C124.668,13.92 124.104,14.84 123.384,15.624 C122.664,16.408 121.804,17.024 120.804,17.472 C119.804,17.92 118.72,18.144 117.552,18.144 C116.368,18.144 115.276,17.92 114.276,17.472 C113.276,17.024 112.416,16.408 111.696,15.624 C110.976,14.84 110.412,13.92 110.004,12.864 C109.596,11.808 109.392,10.672 109.392,9.456 C109.392,8.256 109.596,7.128 110.004,6.072 C110.412,5.016 110.976,4.096 111.696,3.312 C112.416,2.528 113.276,1.912 114.276,1.464 C115.276,1.016 116.368,0.792 117.552,0.792 Z M117.552,15.144 C118.24,15.144 118.884,14.996 119.484,14.7 C120.084,14.404 120.608,13.996 121.056,13.476 C121.504,12.956 121.856,12.352 122.112,11.664 C122.368,10.976 122.496,10.24 122.496,9.456 C122.496,8.688 122.368,7.96 122.112,7.272 C121.856,6.584 121.504,5.98 121.056,5.46 C120.608,4.94 120.084,4.532 119.484,4.236 C118.884,3.94 118.24,3.792 117.552,3.792 C116.864,3.792 116.216,3.94 115.608,4.236 C115,4.532 114.472,4.94 114.024,5.46 C113.576,5.98 113.224,6.584 112.968,7.272 C112.712,7.96 112.584,8.688 112.584,9.456 C112.584,10.24 112.712,10.976 112.968,11.664 C113.224,12.352 113.576,12.956 114.024,13.476 C114.472,13.996 115,14.404 115.608,14.7 C116.216,14.996 116.864,15.144 117.552,15.144 Z M141.312,17.856 L137.496,17.856 L130.704,6 L130.704,17.856 L127.536,17.856 L127.536,1.2 L131.352,1.2 L138.12,13.056 L138.12,1.2 L141.312,1.2 L141.312,17.856 Z M151.104,17.856 L147.912,17.856 L147.912,11.472 L142.32,1.2 L145.896,1.2 L149.496,8.328 L153.12,1.2 L156.696,1.2 L151.104,11.472 L151.104,17.856 Z M178.776,9.528 C178.776,10.808 178.6,11.96 178.248,12.984 C177.896,14.008 177.392,14.88 176.736,15.6 C176.08,16.32 175.288,16.876 174.36,17.268 C173.432,17.66 172.4,17.856 171.264,17.856 L165.096,17.856 L165.096,1.2 L171.264,1.2 C172.416,1.2 173.456,1.392 174.384,1.776 C175.312,2.16 176.1,2.712 176.748,3.432 C177.396,4.152 177.896,5.028 178.248,6.06 C178.6,7.092 178.776,8.248 178.776,9.528 Z M175.608,9.504 C175.608,8.896 175.548,8.276 175.428,7.644 C175.308,7.012 175.088,6.436 174.768,5.916 C174.448,5.396 174.008,4.972 173.448,4.644 C172.888,4.316 172.16,4.152 171.264,4.152 L168.264,4.152 L168.264,14.904 L171.264,14.904 C172.208,14.904 172.964,14.716 173.532,14.34 C174.1,13.964 174.54,13.504 174.852,12.96 C175.164,12.416 175.368,11.832 175.464,11.208 C175.56,10.584 175.608,10.016 175.608,9.504 Z M189.048,1.2 L194.856,17.856 L191.496,17.856 L190.368,14.52 L183.72,14.52 L182.592,17.856 L179.232,17.856 L185.04,1.2 L189.048,1.2 Z M198.048,1.2 L201.864,14.04 L205.656,1.2 L209.016,1.2 L203.568,17.856 L200.16,17.856 L194.688,1.2 L198.048,1.2 Z M187.032,4.728 L184.704,11.568 L189.36,11.568 L187.032,4.728 Z M213.408,17.856 L210.24,17.856 L210.24,1.2 L213.408,1.2 L213.408,17.856 Z M228.384,17.856 L216.048,17.856 L216.048,1.2 L228.216,1.2 L228.216,4.152 L219.216,4.152 L219.216,7.704 L226.896,7.704 L226.896,10.656 L219.216,10.656 L219.216,14.904 L228.384,14.904 L228.384,17.856 Z M236.328,0.768 C237.288,0.768 238.14,0.896 238.884,1.152 C239.628,1.408 240.256,1.748 240.768,2.172 C241.28,2.596 241.692,3.08 242.004,3.624 C242.316,4.168 242.52,4.736 242.616,5.328 L239.544,6.096 C239.496,5.408 239.192,4.84 238.632,4.392 C238.072,3.944 237.304,3.72 236.328,3.72 C235.912,3.72 235.508,3.76 235.116,3.84 C234.724,3.92 234.376,4.04 234.072,4.2 C233.768,4.36 233.528,4.56 233.352,4.8 C233.176,5.04 233.088,5.32 233.088,5.64 C233.088,6.216 233.38,6.644 233.964,6.924 C234.548,7.204 235.48,7.472 236.76,7.728 C237.752,7.92 238.644,8.14 239.436,8.388 C240.228,8.636 240.904,8.952 241.464,9.336 C242.024,9.72 242.456,10.2 242.76,10.776 C243.064,11.352 243.216,12.064 243.216,12.912 C243.216,13.712 243.056,14.436 242.736,15.084 C242.416,15.732 241.956,16.284 241.356,16.74 C240.756,17.196 240.032,17.544 239.184,17.784 C238.336,18.024 237.384,18.144 236.328,18.144 C235.576,18.144 234.828,18.048 234.084,17.856 C233.34,17.664 232.656,17.372 232.032,16.98 C231.408,16.588 230.876,16.088 230.436,15.48 C229.996,14.872 229.712,14.152 229.584,13.32 C230.192,13.176 230.78,13.032 231.348,12.888 C231.916,12.744 232.36,12.632 232.68,12.552 C232.712,13.016 232.844,13.416 233.076,13.752 C233.308,14.088 233.596,14.364 233.94,14.58 C234.284,14.796 234.664,14.96 235.08,15.072 C235.496,15.184 235.912,15.24 236.328,15.24 C236.776,15.24 237.224,15.2 237.672,15.12 C238.12,15.04 238.52,14.908 238.872,14.724 C239.224,14.54 239.508,14.308 239.724,14.028 C239.94,13.748 240.048,13.408 240.048,13.008 C240.048,12.752 239.988,12.512 239.868,12.288 C239.748,12.064 239.536,11.86 239.232,11.676 C238.928,11.492 238.524,11.32 238.02,11.16 C237.516,11 236.88,10.848 236.112,10.704 C235.344,10.56 234.588,10.38 233.844,10.164 C233.1,9.948 232.44,9.652 231.864,9.276 C231.288,8.9 230.82,8.42 230.46,7.836 C230.1,7.252 229.92,6.512 229.92,5.616 C229.92,4.896 230.072,4.24 230.376,3.648 C230.68,3.056 231.112,2.548 231.672,2.124 C232.232,1.7 232.904,1.368 233.688,1.128 C234.472,0.888 235.352,0.768 236.328,0.768 Z M127.368,24.176 C128.104,24.176 128.84,24.324 129.576,24.62 C130.312,24.916 130.976,25.4 131.568,26.072 C132.16,26.744 132.636,27.62 132.996,28.7 C133.356,29.78 133.536,31.104 133.536,32.672 C133.536,34.24 133.356,35.564 132.996,36.644 C132.636,37.724 132.16,38.6 131.568,39.272 C130.976,39.944 130.312,40.428 129.576,40.724 C128.84,41.02 128.104,41.168 127.368,41.168 C126.616,41.168 125.872,41.02 125.136,40.724 C124.4,40.428 123.736,39.944 123.144,39.272 C122.552,38.6 122.076,37.724 121.716,36.644 C121.356,35.564 121.176,34.24 121.176,32.672 C121.176,31.104 121.356,29.78 121.716,28.7 C122.076,27.62 122.552,26.744 123.144,26.072 C123.736,25.4 124.4,24.916 125.136,24.62 C125.872,24.324 126.616,24.176 127.368,24.176 Z M127.368,38.24 C128.04,38.24 128.576,38.028 128.976,37.604 C129.376,37.18 129.68,36.672 129.888,36.08 C130.096,35.488 130.232,34.876 130.296,34.244 C130.36,33.612 130.392,33.088 130.392,32.672 C130.392,32.256 130.36,31.728 130.296,31.088 C130.232,30.448 130.096,29.832 129.888,29.24 C129.68,28.648 129.376,28.14 128.976,27.716 C128.576,27.292 128.04,27.08 127.368,27.08 C126.68,27.08 126.136,27.292 125.736,27.716 C125.336,28.14 125.032,28.648 124.824,29.24 C124.616,29.832 124.48,30.448 124.416,31.088 C124.352,31.728 124.32,32.256 124.32,32.672 C124.32,33.088 124.352,33.612 124.416,34.244 C124.48,34.876 124.616,35.488 124.824,36.08 C125.032,36.672 125.336,37.18 125.736,37.604 C126.136,38.028 126.68,38.24 127.368,38.24 Z M146.232,37.904 L146.232,40.856 L134.688,40.856 L134.688,39.44 C134.688,38.512 134.828,37.692 135.108,36.98 C135.388,36.268 135.764,35.64 136.236,35.096 C136.708,34.552 137.244,34.072 137.844,33.656 C138.444,33.24 139.064,32.864 139.704,32.528 C140.472,32.112 141.084,31.748 141.54,31.436 C141.996,31.124 142.34,30.836 142.572,30.572 C142.804,30.308 142.952,30.06 143.016,29.828 C143.08,29.596 143.112,29.36 143.112,29.12 C143.112,28.56 142.928,28.076 142.56,27.668 C142.192,27.26 141.584,27.056 140.736,27.056 C139.904,27.056 139.256,27.336 138.792,27.896 C138.328,28.456 138.096,29.168 138.096,30.032 L134.904,30.032 C134.904,29.264 135.028,28.528 135.276,27.824 C135.524,27.12 135.892,26.492 136.38,25.94 C136.868,25.388 137.472,24.948 138.192,24.62 C138.912,24.292 139.752,24.128 140.712,24.128 C141.672,24.128 142.5,24.276 143.196,24.572 C143.892,24.868 144.468,25.252 144.924,25.724 C145.38,26.196 145.72,26.732 145.944,27.332 C146.168,27.932 146.28,28.536 146.28,29.144 C146.28,29.928 146.152,30.604 145.896,31.172 C145.64,31.74 145.292,32.248 144.852,32.696 C144.412,33.144 143.888,33.556 143.28,33.932 C142.672,34.308 142.008,34.688 141.288,35.072 C140.44,35.536 139.728,35.996 139.152,36.452 C138.576,36.908 138.264,37.392 138.216,37.904 L146.232,37.904 Z M158.904,26.984 C157,28.536 155.552,30.492 154.56,32.852 C153.568,35.212 153.072,37.88 153.072,40.856 L149.904,40.856 C149.904,39.448 150.012,38.08 150.228,36.752 C150.444,35.424 150.764,34.172 151.188,32.996 C151.612,31.82 152.14,30.74 152.772,29.756 C153.404,28.772 154.136,27.904 154.968,27.152 L147.336,27.152 L147.336,24.2 L158.904,24.2 L158.904,26.984 Z M178.56,37.904 L178.56,40.856 L167.016,40.856 L167.016,39.44 C167.016,38.512 167.156,37.692 167.436,36.98 C167.716,36.268 168.092,35.64 168.564,35.096 C169.036,34.552 169.572,34.072 170.172,33.656 C170.772,33.24 171.392,32.864 172.032,32.528 C172.8,32.112 173.412,31.748 173.868,31.436 C174.324,31.124 174.668,30.836 174.9,30.572 C175.132,30.308 175.28,30.06 175.344,29.828 C175.408,29.596 175.44,29.36 175.44,29.12 C175.44,28.56 175.256,28.076 174.888,27.668 C174.52,27.26 173.912,27.056 173.064,27.056 C172.232,27.056 171.584,27.336 171.12,27.896 C170.656,28.456 170.424,29.168 170.424,30.032 L167.232,30.032 C167.232,29.264 167.356,28.528 167.604,27.824 C167.852,27.12 168.22,26.492 168.708,25.94 C169.196,25.388 169.8,24.948 170.52,24.62 C171.24,24.292 172.08,24.128 173.04,24.128 C174,24.128 174.828,24.276 175.524,24.572 C176.22,24.868 176.796,25.252 177.252,25.724 C177.708,26.196 178.048,26.732 178.272,27.332 C178.496,27.932 178.608,28.536 178.608,29.144 C178.608,29.928 178.48,30.604 178.224,31.172 C177.968,31.74 177.62,32.248 177.18,32.696 C176.74,33.144 176.216,33.556 175.608,33.932 C175,34.308 174.336,34.688 173.616,35.072 C172.768,35.536 172.056,35.996 171.48,36.452 C170.904,36.908 170.592,37.392 170.544,37.904 L178.56,37.904 Z M191.592,37.904 L191.592,40.856 L180.048,40.856 L180.048,39.44 C180.048,38.512 180.188,37.692 180.468,36.98 C180.748,36.268 181.124,35.64 181.596,35.096 C182.068,34.552 182.604,34.072 183.204,33.656 C183.804,33.24 184.424,32.864 185.064,32.528 C185.832,32.112 186.444,31.748 186.9,31.436 C187.356,31.124 187.7,30.836 187.932,30.572 C188.164,30.308 188.312,30.06 188.376,29.828 C188.44,29.596 188.472,29.36 188.472,29.12 C188.472,28.56 188.288,28.076 187.92,27.668 C187.552,27.26 186.944,27.056 186.096,27.056 C185.264,27.056 184.616,27.336 184.152,27.896 C183.688,28.456 183.456,29.168 183.456,30.032 L180.264,30.032 C180.264,29.264 180.388,28.528 180.636,27.824 C180.884,27.12 181.252,26.492 181.74,25.94 C182.228,25.388 182.832,24.948 183.552,24.62 C184.272,24.292 185.112,24.128 186.072,24.128 C187.032,24.128 187.86,24.276 188.556,24.572 C189.252,24.868 189.828,25.252 190.284,25.724 C190.74,26.196 191.08,26.732 191.304,27.332 C191.528,27.932 191.64,28.536 191.64,29.144 C191.64,29.928 191.512,30.604 191.256,31.172 C191,31.74 190.652,32.248 190.212,32.696 C189.772,33.144 189.248,33.556 188.64,33.932 C188.032,34.308 187.368,34.688 186.648,35.072 C185.8,35.536 185.088,35.996 184.512,36.452 C183.936,36.908 183.624,37.392 183.576,37.904 L191.592,37.904 Z M199.104,40.856 L195.936,40.856 L195.936,29.24 L193.344,29.24 L193.344,27.176 C193.712,27.176 194.08,27.116 194.448,26.996 C194.816,26.876 195.148,26.696 195.444,26.456 C195.74,26.216 195.988,25.908 196.188,25.532 C196.388,25.156 196.512,24.712 196.56,24.2 L199.104,24.2 L199.104,40.856 Z M214.104,40.856 L210.936,40.856 L210.936,29.24 L208.344,29.24 L208.344,27.176 C208.712,27.176 209.08,27.116 209.448,26.996 C209.816,26.876 210.148,26.696 210.444,26.456 C210.74,26.216 210.988,25.908 211.188,25.532 C211.388,25.156 211.512,24.712 211.56,24.2 L214.104,24.2 L214.104,40.856 Z M221.712,40.856 L218.544,40.856 L218.544,29.24 L215.952,29.24 L215.952,27.176 C216.32,27.176 216.688,27.116 217.056,26.996 C217.424,26.876 217.756,26.696 218.052,26.456 C218.348,26.216 218.596,25.908 218.796,25.532 C218.996,25.156 219.12,24.712 219.168,24.2 L221.712,24.2 L221.712,40.856 Z M229.536,24.176 C230.272,24.176 231.008,24.324 231.744,24.62 C232.48,24.916 233.144,25.4 233.736,26.072 C234.328,26.744 234.804,27.62 235.164,28.7 C235.524,29.78 235.704,31.104 235.704,32.672 C235.704,34.24 235.524,35.564 235.164,36.644 C234.804,37.724 234.328,38.6 233.736,39.272 C233.144,39.944 232.48,40.428 231.744,40.724 C231.008,41.02 230.272,41.168 229.536,41.168 C228.784,41.168 228.04,41.02 227.304,40.724 C226.568,40.428 225.904,39.944 225.312,39.272 C224.72,38.6 224.244,37.724 223.884,36.644 C223.524,35.564 223.344,34.24 223.344,32.672 C223.344,31.104 223.524,29.78 223.884,28.7 C224.244,27.62 224.72,26.744 225.312,26.072 C225.904,25.4 226.568,24.916 227.304,24.62 C228.04,24.324 228.784,24.176 229.536,24.176 Z M229.536,38.24 C230.208,38.24 230.744,38.028 231.144,37.604 C231.544,37.18 231.848,36.672 232.056,36.08 C232.264,35.488 232.4,34.876 232.464,34.244 C232.528,33.612 232.56,33.088 232.56,32.672 C232.56,32.256 232.528,31.728 232.464,31.088 C232.4,30.448 232.264,29.832 232.056,29.24 C231.848,28.648 231.544,28.14 231.144,27.716 C230.744,27.292 230.208,27.08 229.536,27.08 C228.848,27.08 228.304,27.292 227.904,27.716 C227.504,28.14 227.2,28.648 226.992,29.24 C226.784,29.832 226.648,30.448 226.584,31.088 C226.52,31.728 226.488,32.256 226.488,32.672 C226.488,33.088 226.52,33.612 226.584,34.244 C226.648,34.876 226.784,35.488 226.992,36.08 C227.2,36.672 227.504,37.18 227.904,37.604 C228.304,38.028 228.848,38.24 229.536,38.24 Z M242.88,40.856 L239.712,40.856 L239.712,29.24 L237.12,29.24 L237.12,27.176 C237.488,27.176 237.856,27.116 238.224,26.996 C238.592,26.876 238.924,26.696 239.22,26.456 C239.516,26.216 239.764,25.908 239.964,25.532 C240.164,25.156 240.288,24.712 240.336,24.2 L242.88,24.2 L242.88,40.856 Z M98.448,63.832 C97.536,63.928 96.736,63.872 96.048,63.664 C95.36,63.456 94.784,63.12 94.32,62.656 C93.856,62.192 93.504,61.62 93.264,60.94 C93.024,60.26 92.904,59.496 92.904,58.648 L92.904,54.304 L91.416,54.304 L91.416,51.496 L92.904,51.496 L92.904,46 L96.072,46 L96.072,51.496 L98.304,51.496 L98.304,54.304 L96.072,54.304 L96.072,58.672 C96.072,59.536 96.268,60.144 96.66,60.496 C97.052,60.848 97.648,61 98.448,60.952 L98.448,63.832 Z M105.264,51.184 C106.128,51.184 106.936,51.348 107.688,51.676 C108.44,52.004 109.1,52.46 109.668,53.044 C110.236,53.628 110.684,54.316 111.012,55.108 C111.34,55.9 111.504,56.76 111.504,57.688 C111.504,58.616 111.34,59.472 111.012,60.256 C110.684,61.04 110.236,61.72 109.668,62.296 C109.1,62.872 108.44,63.324 107.688,63.652 C106.936,63.98 106.128,64.144 105.264,64.144 C104.4,64.144 103.592,63.98 102.84,63.652 C102.088,63.324 101.432,62.872 100.872,62.296 C100.312,61.72 99.868,61.04 99.54,60.256 C99.212,59.472 99.048,58.616 99.048,57.688 C99.048,56.76 99.212,55.9 99.54,55.108 C99.868,54.316 100.312,53.628 100.872,53.044 C101.432,52.46 102.088,52.004 102.84,51.676 C103.592,51.348 104.4,51.184 105.264,51.184 Z M105.264,61.24 C105.68,61.24 106.072,61.156 106.44,60.988 C106.808,60.82 107.132,60.58 107.412,60.268 C107.692,59.956 107.912,59.584 108.072,59.152 C108.232,58.72 108.312,58.24 108.312,57.712 C108.312,57.184 108.232,56.696 108.072,56.248 C107.912,55.8 107.692,55.416 107.412,55.096 C107.132,54.776 106.808,54.528 106.44,54.352 C106.072,54.176 105.68,54.088 105.264,54.088 C104.848,54.088 104.452,54.176 104.076,54.352 C103.7,54.528 103.376,54.776 103.104,55.096 C102.832,55.416 102.616,55.8 102.456,56.248 C102.296,56.696 102.216,57.184 102.216,57.712 C102.216,58.24 102.296,58.72 102.456,59.152 C102.616,59.584 102.832,59.956 103.104,60.268 C103.376,60.58 103.7,60.82 104.076,60.988 C104.452,61.156 104.848,61.24 105.264,61.24 Z M124.224,63.856 L121.056,63.856 L121.056,56.632 C121.056,56.456 121.032,56.228 120.984,55.948 C120.936,55.668 120.836,55.396 120.684,55.132 C120.532,54.868 120.304,54.644 120,54.46 C119.696,54.276 119.28,54.184 118.752,54.184 C118.032,54.184 117.452,54.416 117.012,54.88 C116.572,55.344 116.352,55.928 116.352,56.632 L116.352,63.856 L113.184,63.856 L113.184,51.496 L116.208,51.496 L116.208,52.696 C116.608,52.232 117.072,51.864 117.6,51.592 C118.128,51.32 118.728,51.184 119.4,51.184 C120.12,51.184 120.78,51.316 121.38,51.58 C121.98,51.844 122.488,52.212 122.904,52.684 C123.32,53.156 123.644,53.728 123.876,54.4 C124.108,55.072 124.224,55.816 124.224,56.632 L124.224,63.856 Z M132.384,66.112 C132.08,66.912 131.736,67.552 131.352,68.032 C130.968,68.512 130.54,68.876 130.068,69.124 C129.596,69.372 129.076,69.524 128.508,69.58 C127.94,69.636 127.336,69.64 126.696,69.592 L126.696,66.712 C127.096,66.744 127.444,66.736 127.74,66.688 C128.036,66.64 128.296,66.552 128.52,66.424 C128.744,66.296 128.94,66.116 129.108,65.884 C129.276,65.652 129.424,65.36 129.552,65.008 L129.912,64.072 L125.136,51.496 L128.496,51.496 L131.52,60.424 L134.472,51.496 L137.856,51.496 L132.384,66.112 Z M152.568,62.392 C151.096,63.576 149.224,64.168 146.952,64.168 C145.72,64.168 144.568,63.952 143.496,63.52 C142.424,63.088 141.492,62.484 140.7,61.708 C139.908,60.932 139.284,60.016 138.828,58.96 C138.372,57.904 138.144,56.752 138.144,55.504 C138.144,54.272 138.368,53.128 138.816,52.072 C139.264,51.016 139.872,50.096 140.64,49.312 C141.408,48.528 142.312,47.916 143.352,47.476 C144.392,47.036 145.504,46.816 146.688,46.816 C147.664,46.816 148.624,46.964 149.568,47.26 C150.512,47.556 151.352,48 152.088,48.592 C152.824,49.184 153.416,49.928 153.864,50.824 C154.312,51.72 154.536,52.776 154.536,53.992 C154.536,54.776 154.416,55.516 154.176,56.212 C153.936,56.908 153.604,57.516 153.18,58.036 C152.756,58.556 152.26,58.968 151.692,59.272 C151.124,59.576 150.52,59.728 149.88,59.728 C149.32,59.728 148.832,59.608 148.416,59.368 C148,59.128 147.68,58.816 147.456,58.432 C147.12,58.864 146.74,59.196 146.316,59.428 C145.892,59.66 145.448,59.776 144.984,59.776 C144.488,59.776 144.044,59.66 143.652,59.428 C143.26,59.196 142.948,58.868 142.716,58.444 C142.484,58.02 142.348,57.52 142.308,56.944 C142.268,56.368 142.344,55.744 142.536,55.072 C142.696,54.528 142.924,54.024 143.22,53.56 C143.516,53.096 143.848,52.692 144.216,52.348 C144.584,52.004 144.984,51.736 145.416,51.544 C145.848,51.352 146.272,51.256 146.688,51.256 C147.072,51.256 147.416,51.344 147.72,51.52 C148.024,51.696 148.264,51.944 148.44,52.264 L148.632,51.64 L150.792,51.64 C150.712,51.864 150.592,52.232 150.432,52.744 C150.272,53.256 150.112,53.776 149.952,54.304 C149.76,54.928 149.56,55.592 149.352,56.296 C149.224,56.712 149.232,57.024 149.376,57.232 C149.52,57.44 149.72,57.544 149.976,57.544 C150.28,57.544 150.564,57.448 150.828,57.256 C151.092,57.064 151.324,56.804 151.524,56.476 C151.724,56.148 151.88,55.776 151.992,55.36 C152.104,54.944 152.16,54.512 152.16,54.064 C152.16,53.184 152,52.42 151.68,51.772 C151.36,51.124 150.94,50.596 150.42,50.188 C149.9,49.78 149.316,49.476 148.668,49.276 C148.02,49.076 147.36,48.976 146.688,48.976 C145.84,48.976 145.04,49.148 144.288,49.492 C143.536,49.836 142.88,50.304 142.32,50.896 C141.76,51.488 141.32,52.18 141,52.972 C140.68,53.764 140.52,54.608 140.52,55.504 C140.52,56.432 140.684,57.292 141.012,58.084 C141.34,58.876 141.792,59.56 142.368,60.136 C142.944,60.712 143.624,61.164 144.408,61.492 C145.192,61.82 146.04,61.984 146.952,61.984 C147.704,61.984 148.408,61.884 149.064,61.684 C149.72,61.484 150.304,61.216 150.816,60.88 L152.568,62.392 Z M147.384,55.48 C147.56,54.92 147.588,54.444 147.468,54.052 C147.348,53.66 147.104,53.464 146.736,53.464 C146.384,53.464 146.02,53.652 145.644,54.028 C145.268,54.404 144.984,54.888 144.792,55.48 C144.616,56.04 144.588,56.516 144.708,56.908 C144.828,57.3 145.072,57.496 145.44,57.496 C145.808,57.496 146.18,57.3 146.556,56.908 C146.932,56.516 147.208,56.04 147.384,55.48 Z M167.28,63.856 L164.112,63.856 L164.112,56.632 C164.112,56.456 164.088,56.228 164.04,55.948 C163.992,55.668 163.892,55.396 163.74,55.132 C163.588,54.868 163.36,54.644 163.056,54.46 C162.752,54.276 162.336,54.184 161.808,54.184 C161.088,54.184 160.508,54.416 160.068,54.88 C159.628,55.344 159.408,55.928 159.408,56.632 L159.408,63.856 L156.24,63.856 L156.24,51.496 L159.264,51.496 L159.264,52.696 C159.664,52.232 160.128,51.864 160.656,51.592 C161.184,51.32 161.784,51.184 162.456,51.184 C163.176,51.184 163.836,51.316 164.436,51.58 C165.036,51.844 165.544,52.212 165.96,52.684 C166.376,53.156 166.7,53.728 166.932,54.4 C167.164,55.072 167.28,55.816 167.28,56.632 L167.28,63.856 Z M178.032,63.856 C177.904,63.568 177.8,63.184 177.72,62.704 C177.304,63.136 176.784,63.476 176.16,63.724 C175.536,63.972 174.792,64.096 173.928,64.096 C173.272,64.096 172.644,64.012 172.044,63.844 C171.444,63.676 170.912,63.428 170.448,63.1 C169.984,62.772 169.612,62.356 169.332,61.852 C169.052,61.348 168.912,60.76 168.912,60.088 C168.912,59.4 169.048,58.828 169.32,58.372 C169.592,57.916 169.96,57.548 170.424,57.268 C170.888,56.988 171.424,56.78 172.032,56.644 C172.64,56.508 173.288,56.408 173.976,56.344 C174.488,56.296 174.96,56.24 175.392,56.176 C175.824,56.112 176.196,56.028 176.508,55.924 C176.82,55.82 177.064,55.688 177.24,55.528 C177.416,55.368 177.504,55.16 177.504,54.904 C177.504,54.584 177.308,54.308 176.916,54.076 C176.524,53.844 175.968,53.728 175.248,53.728 C174.976,53.728 174.696,53.76 174.408,53.824 C174.12,53.888 173.852,53.98 173.604,54.1 C173.356,54.22 173.14,54.372 172.956,54.556 C172.772,54.74 172.64,54.96 172.56,55.216 C172.4,55.184 172.188,55.136 171.924,55.072 C171.66,55.008 171.384,54.94 171.096,54.868 C170.808,54.796 170.528,54.724 170.256,54.652 C169.984,54.58 169.752,54.52 169.56,54.472 C169.72,53.992 169.972,53.552 170.316,53.152 C170.66,52.752 171.072,52.404 171.552,52.108 C172.032,51.812 172.576,51.584 173.184,51.424 C173.792,51.264 174.456,51.184 175.176,51.184 C176.008,51.184 176.72,51.264 177.312,51.424 C177.904,51.584 178.4,51.796 178.8,52.06 C179.2,52.324 179.52,52.616 179.76,52.936 C180,53.256 180.18,53.572 180.3,53.884 C180.42,54.196 180.496,54.488 180.528,54.76 C180.56,55.032 180.576,55.248 180.576,55.408 L180.576,61.84 C180.576,62.144 180.616,62.496 180.696,62.896 C180.776,63.296 180.856,63.616 180.936,63.856 L178.032,63.856 Z M177.624,57.904 C177.288,58.128 176.868,58.296 176.364,58.408 C175.86,58.52 175.28,58.616 174.624,58.696 C173.84,58.776 173.224,58.916 172.776,59.116 C172.328,59.316 172.104,59.648 172.104,60.112 C172.104,60.464 172.292,60.748 172.668,60.964 C173.044,61.18 173.552,61.288 174.192,61.288 C174.672,61.288 175.12,61.248 175.536,61.168 C175.952,61.088 176.316,60.956 176.628,60.772 C176.94,60.588 177.184,60.356 177.36,60.076 C177.536,59.796 177.624,59.456 177.624,59.056 L177.624,57.904 Z M194.496,60.448 C194.032,61.632 193.3,62.544 192.3,63.184 C191.3,63.824 190.12,64.144 188.76,64.144 C187.832,64.144 186.976,63.976 186.192,63.64 C185.408,63.304 184.736,62.844 184.176,62.26 C183.616,61.676 183.176,60.992 182.856,60.208 C182.536,59.424 182.376,58.584 182.376,57.688 C182.376,56.792 182.536,55.948 182.856,55.156 C183.176,54.364 183.616,53.676 184.176,53.092 C184.736,52.508 185.408,52.044 186.192,51.7 C186.976,51.356 187.832,51.184 188.76,51.184 C190.12,51.184 191.304,51.516 192.312,52.18 C193.32,52.844 194.048,53.776 194.496,54.976 C194.288,55.024 194.044,55.076 193.764,55.132 C193.484,55.188 193.2,55.244 192.912,55.3 C192.624,55.356 192.34,55.412 192.06,55.468 C191.78,55.524 191.528,55.576 191.304,55.624 C191.08,55.208 190.74,54.848 190.284,54.544 C189.828,54.24 189.32,54.088 188.76,54.088 C188.328,54.088 187.92,54.184 187.536,54.376 C187.152,54.568 186.816,54.828 186.528,55.156 C186.24,55.484 186.012,55.868 185.844,56.308 C185.676,56.748 185.592,57.216 185.592,57.712 C185.592,58.192 185.676,58.648 185.844,59.08 C186.012,59.512 186.24,59.892 186.528,60.22 C186.816,60.548 187.152,60.804 187.536,60.988 C187.92,61.172 188.328,61.264 188.76,61.264 C189.32,61.264 189.828,61.12 190.284,60.832 C190.74,60.544 191.08,60.192 191.304,59.776 L194.496,60.448 Z M207.72,60.448 C207.256,61.632 206.524,62.544 205.524,63.184 C204.524,63.824 203.344,64.144 201.984,64.144 C201.056,64.144 200.2,63.976 199.416,63.64 C198.632,63.304 197.96,62.844 197.4,62.26 C196.84,61.676 196.4,60.992 196.08,60.208 C195.76,59.424 195.6,58.584 195.6,57.688 C195.6,56.792 195.76,55.948 196.08,55.156 C196.4,54.364 196.84,53.676 197.4,53.092 C197.96,52.508 198.632,52.044 199.416,51.7 C200.2,51.356 201.056,51.184 201.984,51.184 C203.344,51.184 204.528,51.516 205.536,52.18 C206.544,52.844 207.272,53.776 207.72,54.976 C207.512,55.024 207.268,55.076 206.988,55.132 C206.708,55.188 206.424,55.244 206.136,55.3 C205.848,55.356 205.564,55.412 205.284,55.468 C205.004,55.524 204.752,55.576 204.528,55.624 C204.304,55.208 203.964,54.848 203.508,54.544 C203.052,54.24 202.544,54.088 201.984,54.088 C201.552,54.088 201.144,54.184 200.76,54.376 C200.376,54.568 200.04,54.828 199.752,55.156 C199.464,55.484 199.236,55.868 199.068,56.308 C198.9,56.748 198.816,57.216 198.816,57.712 C198.816,58.192 198.9,58.648 199.068,59.08 C199.236,59.512 199.464,59.892 199.752,60.22 C200.04,60.548 200.376,60.804 200.76,60.988 C201.144,61.172 201.552,61.264 201.984,61.264 C202.544,61.264 203.052,61.12 203.508,60.832 C203.964,60.544 204.304,60.192 204.528,59.776 L207.72,60.448 Z M212.784,63.856 L209.616,63.856 L209.616,51.496 L212.784,51.496 L212.784,63.856 Z M211.176,50.488 C210.728,50.488 210.344,50.328 210.024,50.008 C209.704,49.688 209.544,49.304 209.544,48.856 C209.544,48.392 209.704,47.996 210.024,47.668 C210.344,47.34 210.728,47.176 211.176,47.176 C211.64,47.176 212.036,47.34 212.364,47.668 C212.692,47.996 212.856,48.392 212.856,48.856 C212.856,49.304 212.692,49.688 212.364,50.008 C212.036,50.328 211.64,50.488 211.176,50.488 Z M216.6,63.952 C216.12,63.952 215.708,63.78 215.364,63.436 C215.02,63.092 214.848,62.68 214.848,62.2 C214.848,61.704 215.02,61.28 215.364,60.928 C215.708,60.576 216.12,60.4 216.6,60.4 C217.096,60.4 217.52,60.576 217.872,60.928 C218.224,61.28 218.4,61.704 218.4,62.2 C218.4,62.68 218.224,63.092 217.872,63.436 C217.52,63.78 217.096,63.952 216.6,63.952 Z M231.432,63.856 L228.264,63.856 L228.264,56.632 C228.264,56.456 228.24,56.228 228.192,55.948 C228.144,55.668 228.044,55.396 227.892,55.132 C227.74,54.868 227.512,54.644 227.208,54.46 C226.904,54.276 226.488,54.184 225.96,54.184 C225.24,54.184 224.66,54.416 224.22,54.88 C223.78,55.344 223.56,55.928 223.56,56.632 L223.56,63.856 L220.392,63.856 L220.392,51.496 L223.416,51.496 L223.416,52.696 C223.816,52.232 224.28,51.864 224.808,51.592 C225.336,51.32 225.936,51.184 226.608,51.184 C227.328,51.184 227.988,51.316 228.588,51.58 C229.188,51.844 229.696,52.212 230.112,52.684 C230.528,53.156 230.852,53.728 231.084,54.4 C231.316,55.072 231.432,55.816 231.432,56.632 L231.432,63.856 Z M243.624,63.856 L232.824,63.856 L232.824,61.12 L239.352,54.352 L233.088,54.352 L233.088,51.496 L243.408,51.496 L243.408,54.328 L237,61 L243.624,61 L243.624,63.856 Z" id="path-2"></path>
    </defs>
    <g id="Page-1" stroke="none" stroke-width="1" fill="none" fill-rule="evenodd">
        <g id="Artboard" transform="translate(-1463.000000, -614.000000)" fill-rule="nonzero">
            <g id="Combined-Shape" transform="translate(1463.088000, 614.144000)">
                <use fill="#000000" xlink:href="#path-2"></use>
                <use fill="url(#radialGradient-1)" xlink:href="#path-2"></use>
            </g>
        </g>
    </g>
</svg>